<?xml version="1.0" encoding="UTF-8"?>
<svg width="150px" height="150px" viewBox="0 0 150 150" version="1.1" xmlns="http://www.w3.org/2000/svg" xmlns:xlink="http://www.w3.org/1999/xlink">
    <!-- Generator: Sketch 51.3 (57544) - http://www.bohemiancoding.com/sketch -->
    <title>swanLogoDark</title>
    <desc>Created with Sketch.</desc>
    <defs></defs>
    <g id="Page-1" stroke="none" stroke-width="1" fill="none" fill-rule="evenodd">
        <g id="300" transform="translate(-75.000000, -75.000000)">
            <g id="swanLogoDark" transform="translate(75.000000, 75.000000)">
                <rect id="Rectangle" stroke="#334048" x="0.5" y="0.5" width="149" height="149"></rect>
                <path d="M33.0097807,56.1224889 C35.8912911,50.8243118 37.3883614,46.9496373 37.5009916,44.4984655 C37.6136218,42.0472936 38.8099109,39.7386998 41.0898588,37.5726842 C44.1106265,35.1187123 46.3694156,33.5620717 47.866226,32.9027623 C49.3630364,32.243453 51.3151848,31.9452759 53.7226713,32.0082311 C59.4427584,33.5763414 62.9964694,35.3709378 64.3838041,37.3920202 C66.8352676,40.9633354 68.9833564,48.0313648 69.0400541,50.4603795 C69.1769771,56.3263609 68.0644682,66.4017858 65.9785307,69.4496373 C61.5432913,75.9301534 51.9970854,90.9857702 45.8613432,95.975028 C44.4368728,97.1333312 44.1884817,98.4651602 42.6201322,99.9008092 C39.6178915,102.649026 39.5945825,101.428841 38.7998197,103.17913 C36.5026531,108.238129 26.4218901,112.975028 26.3134916,112.534598 C26.2050932,112.094169 25.032214,112.67582 25.1865385,113.630301 C25.3715031,114.774289 24.6874137,113.931851 25.6767729,113.700614 C28.8604559,112.956511 38.2863232,105.254803 51.5732572,91.3148717 C52.8680157,89.9564813 53.660925,87.57573 56.3593901,84.8549108 C57.0417306,84.1669178 58.5674467,83.1506417 60.9365385,81.8060827 C70.1648855,78.1196392 77.1707449,75.7758892 81.9541166,74.7748327 C86.7374884,73.7737761 92.6661993,73.850599 99.7402494,75.0053014 L106.211929,70.5209264 L103.344742,77.162528 C107.064202,77.5638586 109.671298,77.4456945 111.166031,76.8080358 C112.660763,76.170377 114.000932,74.6046218 115.186538,72.1107702 C116.893865,73.3254878 118.074529,74.6402664 118.728531,76.0551061 C119.382533,77.4699458 119.873744,79.7720291 120.202163,82.9613561 L130.111343,77.162528 C129.910822,87.3832311 128.854182,94.6202103 126.941421,98.8734655 C125.028661,103.126721 121.493179,107.798596 116.334976,112.88909 C116.362526,113.039348 115.880104,113.08134 114.88771,113.015067 C112.456265,112.852692 107.502568,113.373844 99.6777494,113.406669 C96.4596081,113.420169 91.8903215,113.509431 87.8496244,113.747489 C67.9690832,114.918751 47.1477941,115.033985 25.3857572,114.093192 C24.848658,112.728287 24.8724211,110.764419 25.4570463,108.20159 C25.7849253,106.764263 27.2968146,104.547314 27.6172026,102.603934 C27.7038206,102.078535 31.15626,95.8161339 35.3955229,90.6693639 C38.7692319,86.5734385 42.8895057,83.4324886 44.4199369,82.662528 C50.8007327,79.4523469 56.3309735,70.4422414 60.1279447,65.3597936 C63.4017812,60.9775896 64.0703193,53.3432863 62.4687651,48.8334264 C61.2627871,45.4374803 58.0179186,44.729784 57.8320463,43.3910436 C57.7339321,42.6843783 55.9763087,45.8314842 51.3105619,48.4105748 C49.1345961,49.6133862 47.1679536,48.8384698 44.3007963,50.4535436 C41.990241,51.7550827 38.2265691,53.6447312 33.0097807,56.1224889 Z" id="Path-2" stroke="#09091A" fill="#09091A"></path>
            </g>
        </g>
    </g>
</svg>